<svg id="Layer_1" data-name="Layer 1" xmlns="http://www.w3.org/2000/svg" viewBox="0 0 1311 224"><defs><style>.cls-1{fill:#999;}.cls-2{fill:#4c9cef;}</style></defs><g id="Group_7" data-name="Group 7"><path id="Path_38" data-name="Path 38" class="cls-1" d="M135.42,219.47H4.52V4.55h36v181.2h94.93Z"/><path id="Path_39" data-name="Path 39" class="cls-1" d="M195.6,33.8h-36V.81h36Zm0,185.67h-36V58.27h36Z"/><path id="Path_40" data-name="Path 40" class="cls-1" d="M339.31,64.77a72.35,72.35,0,0,1,26.27,30.3q9.26,19.34,9.25,43.81,0,24.18-9.1,43.5a72.85,72.85,0,0,1-25.9,30.45Q323,223.95,301.25,224q-27.92,0-46-16.41v11.94H223.49V4.55h36.27V66.19Q276.62,53.8,299.91,53.8,322.29,53.8,339.31,64.77ZM318.49,184.84A41.11,41.11,0,0,0,332.22,166a75.77,75.77,0,0,0,4.55-27.17,74.09,74.09,0,0,0-4.63-27A41.2,41.2,0,0,0,318,93Q308.56,86,294.54,86q-19.86,0-29.55,14.1t-9.7,38.73q0,24.63,9.85,38.73t30.6,14.1q13.56,0,22.75-6.86Z"/><path id="Path_41" data-name="Path 41" class="cls-1" d="M458.36,59.84a66.47,66.47,0,0,1,17.47-2.31,74.85,74.85,0,0,1,10.14.75V91.86a45.27,45.27,0,0,0-11.64-1.49q-12.39,0-21.64,5.37a37.17,37.17,0,0,0-16.05,16.57q-5.29,10.74-5.29,25.22v81.94H395.23V58.27H427V84.09q6.57-11.34,16.12-17.31A49.63,49.63,0,0,1,458.36,59.84Z"/><path id="Path_42" data-name="Path 42" class="cls-1" d="M532.6,148.87q2.1,20,12.77,30.68t28.88,10.67q13.13,0,22.83-5.9A38.35,38.35,0,0,0,612,167.23L647.53,178a74.41,74.41,0,0,1-41.72,40.53A80.46,80.46,0,0,1,576.34,224q-24.18,0-42.84-10.6a74.41,74.41,0,0,1-29-29.55q-10.37-19-10.37-43.14,0-26.11,10.07-45.74a73.22,73.22,0,0,1,28.29-30.38Q550.67,53.8,574.25,53.8q23.28,0,40.3,10.3t26.12,29.32q9.09,19,9.1,44.7,0,5.08-.45,10.75Zm.9-27.16h79.4q-2.39-18.81-11.41-27.61t-25.75-8.81q-35.82,0-42.24,36.42Z"/><path id="Path_43" data-name="Path 43" class="cls-2" d="M718.8,210q-23.22-14-35.6-39.32T670.81,112q0-33.29,12.39-58.66T718.8,14Q742,.07,773.65.07q24.33,0,43.8,8.28a88.6,88.6,0,0,1,32.84,23.73,102.93,102.93,0,0,1,20.08,36.65l-36.27,10q-6.42-21.49-21.64-33.14T773.65,34q-21.21,0-35.75,9.63T716,70.74q-7.32,17.54-7.47,41.27t7.32,41.27q7.3,17.53,21.94,27.16t35.82,9.63q23.58,0,38.8-11.64t21.65-33.14l36.27,10a102.73,102.73,0,0,1-20.08,36.64,88.51,88.51,0,0,1-32.84,23.74Q798,224,773.65,224,742,224,718.8,210Z"/><path id="Path_44" data-name="Path 44" class="cls-2" d="M1026.92,99.84a157,157,0,0,1,1.12,20.68v99H996.55V197.83q-10.31,13.57-23.88,19.85T940,224q-17,0-29.18-6.49a45.37,45.37,0,0,1-18.5-17.54A48.52,48.52,0,0,1,886,175.29q0-17.76,8.88-29.7t27.84-18.5a184.09,184.09,0,0,1,24.4-5.9q13.8-2.47,39.48-6.35l6.26-.9q-1-14-8.88-20.6t-24.1-6.56a43.31,43.31,0,0,0-21.71,5.52q-9.78,5.52-13.51,17L891.78,99q6.11-21.2,23.28-33.21t44.78-12q22.38,0,38.43,7.31a47.54,47.54,0,0,1,23.65,22.7A50.6,50.6,0,0,1,1026.92,99.84ZM992.37,143.5q-23.43,3.74-33.65,5.6a122.15,122.15,0,0,0-18,4.55q-9.71,3.58-14.63,8.66a17.29,17.29,0,0,0-4.92,12.54A18.28,18.28,0,0,0,928,189.62q6.79,5.69,19.18,5.68a47.08,47.08,0,0,0,20.22-4.11A42.5,42.5,0,0,0,981.47,181a34.38,34.38,0,0,0,7.32-12.39q3.27-7.92,3.58-25.08Z"/><path id="Path_45" data-name="Path 45" class="cls-2" d="M1072.28,210.52q-18.66-13.44-22.68-37.77l36.71-5.67A30,30,0,0,0,1098.78,186q9.77,6.79,24.55,6.79,12.83,0,20-5.15a16.42,16.42,0,0,0,7.16-14.1q0-5.82-2.76-8.95t-11-6.19q-8.21-3.06-27.31-8.14-20.46-5.37-32.32-11.57T1060,124q-5.22-8.43-5.22-20.68,0-14.91,7.84-26.11t22.23-17.32q14.4-6.12,33.36-6.12,18.66,0,33.29,5.82a58.05,58.05,0,0,1,23.65,16.65,48.49,48.49,0,0,1,11,25.14L1149.45,108A23.73,23.73,0,0,0,1140,91.71q-8-6-21.12-6.71-12.69-.6-20.45,4t-7.76,12.61a10.75,10.75,0,0,0,3.21,8.06q3.21,3.13,12.31,6.35t28.51,8.13q19.56,5.09,31,11.34t16.57,15q5.14,8.73,5.15,21.42,0,16.13-8,27.84t-23,18q-15,6.27-35.6,6.27Q1090.94,224,1072.28,210.52Z"/><path id="Path_46" data-name="Path 46" class="cls-2" d="M1263.21,86.49v73.58a105.09,105.09,0,0,0,.6,12.54,18.06,18.06,0,0,0,2.69,7.91,18.89,18.89,0,0,0,9.62,8.06,42.59,42.59,0,0,0,15.3,2.38,126,126,0,0,0,19.1-1.64v30.15a144.81,144.81,0,0,1-27.31,2.84q-17.32,0-30.3-5.45a38.12,38.12,0,0,1-19.4-17.24,44.11,44.11,0,0,1-5.08-14.48,114.72,114.72,0,0,1-1.19-17.76l.15-13.73V86.49h-29.25V58.28h29.25V13.5h35.82V58.28h47.31V86.49Z"/></g></svg>